<?xml version="1.0" standalone="no"?>
<!DOCTYPE svg PUBLIC "-//W3C//DTD SVG 20010904//EN"
 "http://www.w3.org/TR/2001/REC-SVG-20010904/DTD/svg10.dtd">
<svg version="1.0" xmlns="http://www.w3.org/2000/svg"
 width="498.000000pt" height="112.000000pt" viewBox="0 0 498.000000 112.000000"
 preserveAspectRatio="xMidYMid meet">

<g transform="translate(0.000000,112.000000) scale(0.100000,-0.100000)"
fill="#015426" stroke="none">
<path d="M2265 975 c-37 -36 -35 -97 5 -137 27 -26 36 -30 68 -25 50 8 82 46
82 98 0 55 -34 89 -90 89 -30 0 -47 -6 -65 -25z"/>
<path d="M2890 966 c-114 -30 -176 -106 -174 -213 1 -107 56 -164 206 -213 84
-27 113 -49 104 -78 -14 -42 -111 -47 -205 -9 l-59 24 -36 -61 -37 -61 27 -22
c44 -35 130 -57 224 -57 71 0 95 4 142 26 127 58 165 199 81 299 -30 35 -63
53 -157 85 -89 31 -116 49 -116 78 0 55 70 69 160 32 35 -14 65 -24 65 -23 1
1 19 28 39 60 32 48 36 60 25 73 -19 23 -78 50 -137 63 -65 14 -94 13 -152 -3z"/>
<path d="M130 626 l0 -334 23 -4 c12 -2 53 -2 90 0 l68 4 -3 184 c-2 101 -1
184 2 184 3 0 68 -83 144 -185 l140 -185 88 0 88 0 0 335 0 335 -85 0 -85 0
-2 -195 -3 -196 -150 196 -150 195 -82 0 -83 0 0 -334z"/>
<path d="M1490 840 l0 -60 -45 0 -45 0 0 -64 0 -65 43 -3 42 -3 5 -132 c5
-141 12 -161 71 -206 49 -36 144 -35 207 3 l32 20 -30 60 c-31 62 -38 68 -57
49 -16 -16 -52 -1 -58 24 -3 12 -5 58 -3 102 l3 80 58 3 57 3 0 64 0 65 -60 0
-60 0 0 60 0 60 -80 0 -80 0 0 -60z"/>
<path d="M2060 777 c-13 -7 -35 -28 -48 -47 l-24 -35 4 40 3 40 -83 3 -82 3 0
-246 0 -245 80 0 80 0 0 112 c0 167 36 228 129 215 31 -4 41 -2 41 9 0 8 9 40
20 71 11 31 17 59 14 64 -5 9 -70 29 -94 29 -8 0 -26 -6 -40 -13z"/>
<path d="M3505 775 c-22 -8 -48 -24 -57 -36 l-18 -21 0 31 0 31 -85 0 -85 0 0
-245 0 -245 85 0 85 0 0 141 0 141 29 29 c34 34 69 37 99 9 21 -20 22 -29 22
-170 l0 -150 85 0 85 0 0 158 c0 86 -5 175 -11 197 -30 108 -135 167 -234 130z"/>
<path d="M3901 771 c-29 -10 -62 -28 -73 -39 l-21 -20 29 -46 c16 -25 32 -46
35 -46 4 0 26 7 49 15 86 30 150 9 150 -51 0 -22 -3 -24 -22 -18 -42 13 -126
6 -173 -15 -37 -16 -50 -29 -66 -67 -63 -140 81 -255 225 -179 43 23 46 23 46
6 0 -25 19 -31 96 -31 l64 0 0 182 c0 216 -10 250 -87 295 -62 36 -173 42
-252 14z m169 -310 c0 -45 -67 -75 -100 -46 -40 36 -15 64 58 65 35 0 42 -3
42 -19z"/>
<path d="M4566 780 c-16 -5 -42 -21 -57 -36 l-29 -28 0 32 0 32 -85 0 -85 0 2
-332 3 -333 83 -3 82 -3 0 106 c0 58 3 105 7 105 3 0 15 -8 25 -17 23 -21 115
-29 161 -14 88 29 150 132 150 247 -1 88 -24 145 -81 196 -56 51 -114 66 -176
48z m75 -196 c56 -105 -80 -212 -142 -111 -23 38 -24 68 -4 107 28 54 117 57
146 4z"/>
<path d="M860 603 c0 -152 3 -184 19 -218 48 -104 158 -136 254 -75 l47 30 0
-25 c0 -25 2 -25 80 -25 l80 0 0 245 0 245 -80 0 -80 0 0 -145 c0 -142 -1
-147 -25 -170 -18 -19 -35 -25 -65 -25 -37 0 -42 3 -56 35 -10 24 -14 74 -14
170 l0 135 -80 0 -80 0 0 -177z"/>
<path d="M2240 535 l0 -245 85 0 85 0 0 245 0 245 -85 0 -85 0 0 -245z"/>
<path d="M2490 535 l0 -245 85 0 85 0 0 245 0 245 -85 0 -85 0 0 -245z"/>
</g>
</svg>
